/* XPM */
static char * wall_xpm[] = {
"16 16 3 1",
" 	c #B58F7D",
".	c #986D58",
"+	c #684A3C",
"   .       .    ",
"...+ ......+ ...",
"...+ ......+ ...",
"++++.+++++++.+++",
"       .       .",
" ......+ ......+",
" ......+ ......+",
".+++++++.+++++++",
"   .       .    ",
"...+ ......+ ...",
"...+ ......+ ...",
"++++.+++++++.+++",
"       .       .",
" ......+ ......+",
" ......+ ......+",
".+++++++.+++++++"};
