/* XPM */
static char * wall_N_xpm[] = {
"16 16 211 2",
"  	c None",
". 	c #3B0905",
"+ 	c #460B05",
"@ 	c #430B06",
"# 	c #4E0E08",
"$ 	c #4B0D07",
"% 	c #641409",
"& 	c #871F10",
"* 	c #691409",
"= 	c #470A06",
"- 	c #4B0C06",
"; 	c #4D0C06",
"> 	c #731609",
", 	c #5E1209",
"' 	c #3D0905",
") 	c #400905",
"! 	c #741D11",
"~ 	c #842012",
"{ 	c #5F1209",
"] 	c #4C0D06",
"^ 	c #4B0D06",
"/ 	c #4A0C06",
"( 	c #4C0D07",
"_ 	c #731A0D",
": 	c #6E1A0F",
"< 	c #671409",
"[ 	c #651308",
"} 	c #661308",
"| 	c #430A05",
"1 	c #5A1008",
"2 	c #5F1309",
"3 	c #510F07",
"4 	c #460D06",
"5 	c #70190D",
"6 	c #842314",
"7 	c #69160C",
"8 	c #571007",
"9 	c #58120A",
"0 	c #7F1F12",
"a 	c #842213",
"b 	c #822213",
"c 	c #8A2314",
"d 	c #8A1F11",
"e 	c #8B2011",
"f 	c #771A0D",
"g 	c #470C05",
"h 	c #5B1208",
"i 	c #6C160B",
"j 	c #65140C",
"k 	c #691308",
"l 	c #5C1008",
"m 	c #510E07",
"n 	c #3E0A05",
"o 	c #440B06",
"p 	c #5D1108",
"q 	c #450B06",
"r 	c #430A06",
"s 	c #511109",
"t 	c #66170F",
"u 	c #541109",
"v 	c #58140B",
"w 	c #69150C",
"x 	c #731A0F",
"y 	c #57120A",
"z 	c #52130B",
"A 	c #65190E",
"B 	c #761A0E",
"C 	c #73190D",
"D 	c #6E170D",
"E 	c #801C10",
"F 	c #79190C",
"G 	c #6A1409",
"H 	c #4F0D07",
"I 	c #4D0E07",
"J 	c #591008",
"K 	c #480D07",
"L 	c #3F0A06",
"M 	c #50120B",
"N 	c #470B06",
"O 	c #420B06",
"P 	c #430B05",
"Q 	c #410B05",
"R 	c #63170F",
"S 	c #6B1A10",
"T 	c #7D2011",
"U 	c #77190D",
"V 	c #7A1B0F",
"W 	c #7D2012",
"X 	c #6A150D",
"Y 	c #3E0905",
"Z 	c #520E07",
"` 	c #5A0F07",
" .	c #4D0D06",
"..	c #460B06",
"+.	c #570F07",
"@.	c #3D0B05",
"#.	c #410906",
"$.	c #450C06",
"%.	c #57110A",
"&.	c #63180E",
"*.	c #70190C",
"=.	c #601108",
"-.	c #5E1208",
";.	c #871F11",
">.	c #7D1D0F",
",.	c #67140A",
"'.	c #671609",
").	c #550D06",
"!.	c #500E07",
"~.	c #671208",
"{.	c #601107",
"].	c #3C0B06",
"^.	c #380A05",
"/.	c #430D07",
"(.	c #561109",
"_.	c #53100A",
":.	c #6E180E",
"<.	c #842210",
"[.	c #68170D",
"}.	c #6A170E",
"|.	c #731B12",
"1.	c #6F1A0E",
"2.	c #781A0C",
"3.	c #68160B",
"4.	c #500F07",
"5.	c #74180B",
"6.	c #4A0D07",
"7.	c #570F09",
"8.	c #5A1209",
"9.	c #380905",
"0.	c #340805",
"a.	c #500E09",
"b.	c #3F0A05",
"c.	c #3A0905",
"d.	c #4C0C06",
"e.	c #420A06",
"f.	c #4C0D08",
"g.	c #551009",
"h.	c #551208",
"i.	c #65170D",
"j.	c #64150D",
"k.	c #591109",
"l.	c #551008",
"m.	c #4F0C06",
"n.	c #530E07",
"o.	c #4A0D06",
"p.	c #661309",
"q.	c #410A05",
"r.	c #70180C",
"s.	c #390905",
"t.	c #6D1509",
"u.	c #5D1209",
"v.	c #540F08",
"w.	c #802211",
"x.	c #7A1F13",
"y.	c #511007",
"z.	c #591309",
"A.	c #71180F",
"B.	c #71170C",
"C.	c #62160B",
"D.	c #581009",
"E.	c #63130A",
"F.	c #631309",
"G.	c #470C07",
"H.	c #3B0A05",
"I.	c #5D140C",
"J.	c #65170F",
"K.	c #62140A",
"L.	c #4B0B06",
"M.	c #390906",
"N.	c #400B05",
"O.	c #420B05",
"P.	c #4D1009",
"Q.	c #5D150C",
"R.	c #721B0F",
"S.	c #791B0E",
"T.	c #67160C",
"U.	c #6D160B",
"V.	c #4E0D06",
"W.	c #3C0A06",
"X.	c #3C0A05",
"Y.	c #510F08",
"Z.	c #4F0F07",
"`.	c #490C06",
" +	c #560F08",
".+	c #480B06",
"++	c #4E0C07",
"@+	c #4F0F08",
"#+	c #59160C",
"$+	c #69180D",
"%+	c #661409",
"&+	c #530E06",
"*+	c #5A1109",
"=+	c #540F09",
"-+	c #6E1A10",
";+	c #581007",
">+	c #450A06",
",+	c #520E06",
"'+	c #3E0906",
")+	c #3A0906",
"!+	c #440A05",
"~+	c #410B06",
"{+	c #5C1208",
"]+	c #7B1B0E",
"^+	c #7B1E11",
"/+	c #7D1B0D",
"(+	c #741A0E",
"_+	c #530F08",
":+	c #5E1108",
"<+	c #520F07",
"[+	c #510F06",
". + @ # $ % & * @ = - ; > , ' ) ",
"! ~ { ] ^ / ( _ : < [ } / | 1 @ ",
"2 3 @ 4 5 6 7 8 9 0 a b c d e f ",
"g h i j k l m n o p q r s t u v ",
"w x y z A B C D E F G H I J K L ",
"M - N O - P Q s R S T U V W X B ",
"Y Z `  .p ..q +./ @.#.q $.m %.&.",
"*.=.-.;.>.,.7 '.).!. .+.~.{.$.r ",
"] ].^./.(.s _.:.<.[.}.|.1.2.3.4.",
"5.I 6.7.8.9.0.q a.b.c.d.e.c.f.g.",
"h.i.j.k.l.m.n.H !.o.p.q @ q.6.r.",
"s.N t.u.v.w.x.y.z.A.B.C.D.E.F.G.",
"H.N 3 I.J.K.L.M.N.| O.P.Q.R.S.T.",
"U.j V.W.X.Y.Z.`.m  +.+c.Y ++].@+",
"#+$+%+l.&+*+r =+-+C ;+>+,+,+'+)+",
"!+~+{+]+^+/+(+_+V.N +.:+i F.<+[+"};
