/* XPM */
static char * wall_Expm_xpm[] = {
"16 16 242 2",
"  	c None",
". 	c #020092",
"+ 	c #00028D",
"@ 	c #02008E",
"# 	c #08008C",
"$ 	c #050086",
"% 	c #0525AF",
"& 	c #0665C7",
"* 	c #0661CA",
"= 	c #0929B6",
"- 	c #020598",
"; 	c #010194",
"> 	c #040194",
", 	c #04079E",
"' 	c #0B27B6",
") 	c #0E48C3",
"! 	c #0335B2",
"~ 	c #010090",
"{ 	c #00018F",
"] 	c #020089",
"^ 	c #070083",
"/ 	c #020283",
"( 	c #032CAC",
"_ 	c #046CC6",
": 	c #075FC2",
"< 	c #0120A4",
"[ 	c #091FA6",
"} 	c #010595",
"| 	c #02018C",
"1 	c #03018F",
"2 	c #020595",
"3 	c #011098",
"4 	c #0728A7",
"5 	c #010193",
"6 	c #000191",
"7 	c #030085",
"8 	c #04017E",
"9 	c #000989",
"0 	c #0C5CC7",
"a 	c #0380CD",
"b 	c #0684D3",
"c 	c #095DC6",
"d 	c #0737B0",
"e 	c #02039C",
"f 	c #000291",
"g 	c #010592",
"h 	c #01069B",
"i 	c #00069A",
"j 	c #030798",
"k 	c #000194",
"l 	c #00018C",
"m 	c #030086",
"n 	c #030189",
"o 	c #00119B",
"p 	c #0667CB",
"q 	c #0686D4",
"r 	c #0B9AE1",
"s 	c #0577D2",
"t 	c #023EB3",
"u 	c #0412AB",
"v 	c #0210A2",
"w 	c #0817AC",
"x 	c #0514AE",
"y 	c #010DA2",
"z 	c #02079C",
"A 	c #000196",
"B 	c #00018A",
"C 	c #04008A",
"D 	c #030199",
"E 	c #0015AB",
"F 	c #0169CB",
"G 	c #048BDB",
"H 	c #0690DC",
"I 	c #0774D0",
"J 	c #0554C7",
"K 	c #0A35BC",
"L 	c #021BA5",
"M 	c #0411A7",
"N 	c #01069F",
"O 	c #000392",
"P 	c #010290",
"Q 	c #030099",
"R 	c #01009D",
"S 	c #02019A",
"T 	c #03039B",
"U 	c #031CB2",
"V 	c #087FD2",
"W 	c #0796E0",
"X 	c #0566D4",
"Y 	c #023CB6",
"Z 	c #041CA9",
"` 	c #000999",
" .	c #000292",
"..	c #03008F",
"+.	c #03008C",
"@.	c #010089",
"#.	c #010189",
"$.	c #02019F",
"%.	c #00069F",
"&.	c #0417A6",
"*.	c #0428AF",
"=.	c #0676C9",
"-.	c #0686D0",
";.	c #0217A6",
">.	c #01059B",
",.	c #020097",
"'.	c #01009C",
").	c #040091",
"!.	c #020088",
"~.	c #010084",
"{.	c #020282",
"].	c #030299",
"^.	c #031AA4",
"/.	c #032FAD",
"(.	c #0B3DBB",
"_.	c #0323A8",
":.	c #0E6BCD",
"<.	c #27B4EE",
"[.	c #0125AD",
"}.	c #0105A0",
"|.	c #0205A4",
"1.	c #0205A6",
"2.	c #01059F",
"3.	c #080084",
"4.	c #030382",
"5.	c #071EA7",
"6.	c #0570CD",
"7.	c #0E92E5",
"8.	c #0A63D2",
"9.	c #0A35BE",
"0.	c #0223A6",
"a.	c #0C66C7",
"b.	c #074DC3",
"c.	c #0013A5",
"d.	c #0109A7",
"e.	c #0323B9",
"f.	c #0E36C4",
"g.	c #0D2FB7",
"h.	c #010A91",
"i.	c #07028B",
"j.	c #000088",
"k.	c #0C5DC6",
"l.	c #1096E4",
"m.	c #0A63C6",
"n.	c #0219A0",
"o.	c #010699",
"p.	c #040398",
"q.	c #0319A4",
"r.	c #0E52CE",
"s.	c #0940C6",
"t.	c #041DAE",
"u.	c #050AA3",
"v.	c #0219AA",
"w.	c #092EB8",
"x.	c #0B29B2",
"y.	c #08149F",
"z.	c #06079C",
"A.	c #0733B6",
"B.	c #0828B3",
"C.	c #000D94",
"D.	c #000186",
"E.	c #020096",
"F.	c #0207A0",
"G.	c #071BB2",
"H.	c #0622B1",
"I.	c #0A2EB5",
"J.	c #0518AD",
"K.	c #080FA8",
"L.	c #0111A7",
"M.	c #011AAD",
"N.	c #0611A7",
"O.	c #0B1AAA",
"P.	c #092AAA",
"Q.	c #010497",
"R.	c #010195",
"S.	c #02008D",
"T.	c #01008B",
"U.	c #010190",
"V.	c #020398",
"W.	c #02069F",
"X.	c #03059F",
"Y.	c #050DA4",
"Z.	c #0413A7",
"`.	c #01059C",
" +	c #00079C",
".+	c #000FA2",
"++	c #00059B",
"@+	c #01059A",
"#+	c #0F3EB6",
"$+	c #010694",
"%+	c #020099",
"&+	c #020093",
"*+	c #00008D",
"=+	c #010292",
"-+	c #010297",
";+	c #0808A3",
">+	c #0102A0",
",+	c #0308A3",
"'+	c #02019E",
")+	c #00039F",
"!+	c #0209A3",
"~+	c #0506A3",
"{+	c #04019B",
"]+	c #081EA8",
"^+	c #050290",
"/+	c #050195",
"(+	c #04009B",
"_+	c #010091",
":+	c #00008F",
"<+	c #000290",
"[+	c #010598",
"}+	c #01009B",
"|+	c #04009D",
"1+	c #03009C",
"2+	c #02019C",
"3+	c #03069F",
"4+	c #0B20B7",
"5+	c #040E99",
"6+	c #000690",
"7+	c #01019C",
"8+	c #020098",
"9+	c #020291",
"0+	c #0A0B9F",
"a+	c #020090",
"b+	c #030091",
"c+	c #040090",
"d+	c #01008F",
"e+	c #020BA1",
"f+	c #0410A7",
"g+	c #0413A9",
"h+	c #0609A1",
"i+	c #040199",
"j+	c #00029A",
"k+	c #020198",
"l+	c #02069A",
"m+	c #0A0FA4",
"n+	c #030092",
"o+	c #000092",
"p+	c #000195",
"q+	c #040098",
"r+	c #07009A",
"s+	c #0105A1",
". + @ # $ % & * = - ; > , ' ) ! ",
"~ { ] ^ / ( _ : < [ } | 1 2 3 4 ",
"5 6 7 8 9 0 a b c d e f g h i j ",
"k l m n o p q r s t u v w x y z ",
"A B C D E F G H I J K L M N O P ",
"Q R S T U V W X Y Z `  ...+.@.#.",
"A $.%.&.*.=.-.;.>.,.'.Q ).!.~.{.",
"].^./.(._.:.<.[.}.|.1.2.} !.3.4.",
"5.6.7.8.9.0.a.b.c.d.e.f.g.h.i.j.",
"k.l.m.n.o.p.q.r.s.t.u.v.w.x.y.z.",
"A.B.C.D.j.E.F.G.H.I.J.K.L.M.N.O.",
"P.Q.R.S.T.U.V.W.X.Y.Z.`. +.+++@+",
"#+$+%+,.&+*+=+-+;+>+,+'+)+!+~+{+",
"]+^+/+(+S _+:+<+[+u.}+|+1+'.2+3+",
"4+5+6+D 7+8+_+*+9+0+a+b+).c+d+e+",
"f+g+y h+i+j+j+k+l+m+n+o+p+q+r+s+"};
